<svg width="70" height="91" viewBox="0 0 70 91" fill="none" xmlns="http://www.w3.org/2000/svg">
<path fill-rule="evenodd" clip-rule="evenodd" d="M41.9952 36.4756V76.8981H55.9971V68.7606L70.0004 76.8981V91H0.00292969V76.8981L13.9974 68.7606V76.8981H27.9994V36.7796L35.2623 32.5588L41.9952 36.4756Z" fill="#FFB300"/>
<path fill-rule="evenodd" clip-rule="evenodd" d="M55.9971 28.3381L35.2623 16.2763L13.9974 28.6421V52.4768L0.00292969 60.6156V20.4971L35.2623 1.06712e-05L70.0004 20.1931V60.6156L55.9971 52.4768V28.3381Z" fill="#E4E4E4"/>
<g style="mix-blend-mode:overlay" opacity="0.5">
<path fill-rule="evenodd" clip-rule="evenodd" d="M13.997 44.3394V52.4769L0.002497 60.6145V36.1931L13.997 44.3382V44.3394ZM27.999 76.8983V52.4769L41.9935 60.6145V76.897H55.9955V68.7595L69.9975 76.897V90.9989H0V76.897L13.9945 68.7595V76.897H27.9965L27.999 76.8983Z" fill="black"/>
</g>
</svg>
